<svg width="397" height="441" viewBox="0 0 397 441" fill="none" xmlns="http://www.w3.org/2000/svg">
<path d="M349.324 166.849C348.426 165.853 347.418 164.863 346.378 163.885C345.375 150.14 335.285 138.239 321.097 135.584C312.549 133.981 304.174 136.048 297.563 140.665C286.445 139.248 277.947 141.34 275.211 147.089C272.895 151.959 275.099 158.495 281.413 165.488C282.323 166.496 283.332 167.499 284.378 168.495C285.399 182.222 295.458 194.104 309.633 196.759C316.467 198.04 323.183 196.951 328.984 194.116C328.365 193.968 327.746 193.813 327.108 193.64C320.355 191.796 312.914 188.658 305.412 184.313C299.606 180.947 294.338 177.147 289.856 173.168C294.827 176.986 300.683 180.551 307.077 183.589C314.672 187.197 322.119 189.667 328.847 190.985C330.215 191.338 331.565 191.659 332.859 191.901C332.958 191.833 333.05 191.752 333.149 191.684C344.273 193.108 352.784 191.01 355.514 185.26C357.842 180.378 355.638 173.849 349.324 166.849ZM277.897 148.358C279.822 144.31 286.018 142.689 294.301 143.32C289.534 147.708 286.074 153.587 284.787 160.438C284.607 161.378 284.496 162.319 284.403 163.254C286.439 165.791 288.891 168.328 291.664 170.798C288.593 168.433 285.87 165.983 283.623 163.495C278.237 157.535 276.151 152.021 277.897 148.358ZM352.846 183.979C350.921 188.033 344.719 189.66 336.43 189.029C341.203 184.641 344.675 178.762 345.963 171.899C346.204 170.624 346.334 169.362 346.415 168.099C346.65 168.347 346.904 168.588 347.127 168.836C352.506 174.795 354.592 180.316 352.846 183.979Z" fill="#29292E"/>
<path d="M219.106 431.477C231.229 433.225 229.116 432.397 241.336 433.313C252.306 433.313 243.202 433.082 253.838 433.313C263.496 433.521 253.9 434.383 263.511 433.313C267.713 432.844 274.249 434.347 278.405 433.313H284.443C267.537 433.313 260.816 399.168 260.82 365.957L260.566 329.177L240.18 329.179L240.429 366.072C240.36 399.232 233.297 430.3 213.543 430.3L213.573 431.477C223.613 432.733 209.094 430.039 219.106 431.477Z" fill="url(#paint0_radial_8184_25436)"/>
<path d="M117.767 431.477C129.774 433.225 127.6 432.397 139.702 433.313C150.567 433.313 141.551 433.082 152.085 433.313C161.649 433.521 152.064 434.383 161.583 433.313C165.745 432.844 172.218 434.347 176.334 433.313H182.313C165.57 433.313 158.996 399.168 158.999 365.957L158.748 329.177L138.557 329.179L138.804 366.072C138.736 399.232 131.822 430.3 112.258 430.3L112.288 431.477C122.231 432.733 107.852 430.039 117.767 431.477Z" fill="url(#paint1_radial_8184_25436)"/>
<path d="M172.759 437.462C188.725 439.778 171.251 438.681 187.344 439.895C201.792 439.895 189.803 439.588 203.81 439.895C213.998 440.17 208.731 441.312 221.39 439.895C226.924 439.274 228.214 439.895 230.221 439.895L238.173 437.462C225.134 437.462 213 423.614 213.005 379.604L212.671 330.865L185.821 330.868L186.15 379.757C186.059 423.699 170.752 435.902 165.433 435.902L165.473 437.462C178.695 439.126 159.573 435.556 172.759 437.462Z" fill="url(#paint2_radial_8184_25436)"/>
<path d="M216.811 176.99V159.22L222.026 153.568H199.591H199.496H177.06L182.276 159.22V176.99L177.06 182.238L199.496 190.476V190.511L199.546 190.496L199.591 190.511V190.476L222.026 182.238L216.811 176.99Z" fill="#F1F1F1"/>
<path d="M216.811 176.99V159.22L222.026 153.568H199.591H199.496H177.06L182.276 159.22V176.99L177.06 182.238L199.496 190.476V190.511L199.546 190.496L199.591 190.511V190.476L222.026 182.238L216.811 176.99Z" fill="#E5E5E5"/>
<path d="M216.811 167.434V159.22L222.031 153.568H211.695L204.776 166.041C208.793 166.42 212.804 166.934 216.811 167.434Z" fill="#F1F1F1"/>
<path d="M216.81 168.866C212.554 168.337 208.288 167.788 204.016 167.408L203.602 168.157L196.588 175.467L191.972 182.237L195.479 189.003L199.495 190.476V190.511L199.54 190.496L199.585 190.511V190.476L222.021 182.237L216.8 176.985V168.866H216.81Z" fill="white"/>
<path d="M241.714 323.743H207.134C206.759 323.743 206.459 323.443 206.459 323.068V319.164C206.459 318.79 206.759 318.49 207.134 318.49H241.714C242.089 318.49 242.389 318.79 242.389 319.164V323.068C242.389 323.443 242.089 323.743 241.714 323.743Z" fill="#464650"/>
<path d="M241.714 301.035H207.134C206.759 301.035 206.459 300.735 206.459 300.361V296.456C206.459 296.082 206.759 295.782 207.134 295.782H241.714C242.089 295.782 242.389 296.082 242.389 296.456V300.361C242.389 300.735 242.089 301.035 241.714 301.035Z" fill="#464650"/>
<path d="M234.795 324.407L210.341 299.966C210.077 299.702 210.077 299.277 210.341 299.013L213.104 296.252C213.369 295.987 213.793 295.987 214.058 296.252L238.512 320.692C238.777 320.957 238.777 321.381 238.512 321.646L235.75 324.407C235.485 324.671 235.055 324.671 234.795 324.407Z" fill="#464650"/>
<path d="M241.714 241H207.134C206.759 241 206.459 240.7 206.459 240.326V236.421C206.459 236.047 206.759 235.747 207.134 235.747H241.714C242.089 235.747 242.389 236.047 242.389 236.421V240.326C242.389 240.695 242.089 241 241.714 241Z" fill="#464650"/>
<path d="M157.372 323.743H191.952C192.327 323.743 192.627 323.443 192.627 323.068V319.164C192.627 318.79 192.327 318.49 191.952 318.49H157.372C156.997 318.49 156.698 318.79 156.698 319.164V323.068C156.698 323.443 157.002 323.743 157.372 323.743Z" fill="#464650"/>
<path d="M157.372 301.035H191.952C192.327 301.035 192.627 300.735 192.627 300.361V296.456C192.627 296.082 192.327 295.782 191.952 295.782H157.372C156.997 295.782 156.698 296.082 156.698 296.456V300.361C156.698 300.735 157.002 301.035 157.372 301.035Z" fill="#464650"/>
<path d="M164.296 324.407L188.75 299.966C189.014 299.702 189.014 299.277 188.75 299.013L185.987 296.252C185.722 295.987 185.298 295.987 185.033 296.252L160.579 320.692C160.314 320.957 160.314 321.381 160.579 321.646L163.342 324.407C163.606 324.671 164.031 324.671 164.296 324.407Z" fill="#464650"/>
<path d="M157.372 241H191.952C192.327 241 192.627 240.7 192.627 240.326V236.421C192.627 236.047 192.327 235.747 191.952 235.747H157.372C156.997 235.747 156.698 236.047 156.698 236.421V240.326C156.698 240.695 157.002 241 157.372 241Z" fill="#464650"/>
<path d="M130.475 249.118H167.138C169.501 249.118 171.415 247.206 171.415 244.844V200.966C171.415 198.604 169.501 196.692 167.138 196.692H130.475C128.112 196.692 126.198 198.604 126.198 200.966V244.844C126.198 247.206 128.112 249.118 130.475 249.118Z" fill="#F1F1F1"/>
<path d="M231.888 249.118H268.551C270.914 249.118 272.828 247.206 272.828 244.844V200.966C272.828 198.604 270.914 196.692 268.551 196.692H231.888C229.525 196.692 227.612 198.604 227.612 200.966V244.844C227.612 247.206 229.525 249.118 231.888 249.118Z" fill="#F1F1F1"/>
<path d="M212.49 103.384H186.602C181.102 103.384 176.646 98.9301 176.646 93.4329V47.3679C176.646 41.8707 181.102 37.417 186.602 37.417H212.49C217.99 37.417 222.446 41.8707 222.446 47.3679V93.4329C222.446 98.9251 217.985 103.384 212.49 103.384Z" fill="#F1F1F1"/>
<path d="M212.839 195.364H186.252V212.7H212.839V195.364Z" fill="#F1F1F1"/>
<path d="M132.199 339.521L135.995 346.286H150.398V323.743L132.199 339.521Z" fill="#464650"/>
<path d="M165.21 339.52L161.413 346.286H147.01V323.743L165.21 339.52Z" fill="#464650"/>
<path d="M132.199 339.521L135.995 346.286H150.398V323.743L132.199 339.521Z" fill="#464650"/>
<path d="M165.21 339.52L161.413 346.286H147.01V323.743L165.21 339.52Z" fill="#464650"/>
<path d="M160.829 348.723H136.65C136.305 348.723 136.03 348.443 136.03 348.103V346.306H161.448V348.103C161.448 348.448 161.169 348.723 160.829 348.723Z" fill="#D73628"/>
<path d="M168.501 264.701L170.959 257.541C171.433 256.163 171.673 254.72 171.673 253.262V212.49C171.673 209.11 168.931 206.364 165.543 206.364H132.737C129.355 206.364 126.607 209.105 126.607 212.49V253.088C126.607 254.66 126.882 256.218 127.416 257.696L129.689 263.977C130.364 265.84 130.708 267.807 130.708 269.789V308.954C130.708 310.841 130.394 312.718 129.779 314.506L127.606 320.832C126.947 322.759 126.607 324.781 126.607 326.818V326.973C126.607 330.987 127.641 334.937 129.604 338.437C130.953 340.844 133.496 342.331 136.259 342.331H146.83H151.451H162.021C164.779 342.331 167.322 340.844 168.676 338.437C170.644 334.937 171.673 330.987 171.673 326.973V323.743L168.591 315.23C167.916 313.367 167.572 311.4 167.572 309.418V270.253C167.572 268.361 167.886 266.484 168.501 264.701Z" fill="white"/>
<path d="M151.806 338.442C149.838 334.942 148.809 330.992 148.809 326.978V326.823C148.809 324.786 149.149 322.764 149.808 320.837L151.981 314.511C152.596 312.723 152.91 310.846 152.91 308.959V269.794C152.91 267.812 152.566 265.845 151.891 263.982L149.613 257.696C149.079 256.218 148.804 254.66 148.804 253.088V212.49C148.804 209.11 151.547 206.364 154.934 206.364H132.353C128.971 206.364 126.223 209.105 126.223 212.49V253.088C126.223 254.66 126.498 256.218 127.033 257.696L129.306 263.977C129.98 265.84 130.325 267.807 130.325 269.789V308.954C130.325 310.841 130.01 312.718 129.396 314.506L127.223 320.832C126.563 322.759 126.223 324.781 126.223 326.818V326.973C126.223 330.987 127.257 334.937 129.221 338.437C130.57 340.844 133.112 342.331 135.875 342.331H146.446H151.067H158.456C155.698 342.331 153.155 340.844 151.806 338.442Z" fill="#F1F1F1"/>
<path d="M148.759 176.99C152.051 176.99 155.034 178.048 156.378 179.691L169.926 196.228C170.825 197.321 171.285 198.51 171.285 199.708C171.285 201.191 169.087 202.394 166.374 202.394H131.129C128.417 202.394 126.219 201.191 126.219 199.708C126.219 198.51 126.683 197.321 127.577 196.228L141.126 179.691C142.485 178.044 145.467 176.99 148.759 176.99Z" fill="#F1F1F1"/>
<path d="M177.01 339.989L182.195 349.226H201.853V318.46L177.01 339.989Z" fill="#464650"/>
<path d="M222.076 339.989L216.89 349.226H197.232V318.46L222.076 339.989Z" fill="#464650"/>
<path d="M219.079 210.048C217.73 207.642 215.187 206.154 212.424 206.154H201.853H197.232H186.661C183.904 206.154 181.361 207.642 180.007 210.048C178.039 213.548 177.01 217.498 177.01 221.512V333.868V339.995H222.076V333.868V221.512C222.076 217.498 221.042 213.548 219.079 210.048Z" fill="#E5E5E5"/>
<path d="M177.01 339.989L182.195 349.226H201.853V318.46L177.01 339.989Z" fill="#464650"/>
<path d="M222.076 339.989L216.89 349.226H197.232V318.46L222.076 339.989Z" fill="#464650"/>
<path d="M219.079 210.048C217.73 207.642 215.187 206.154 212.424 206.154H201.853H197.232H186.661C183.904 206.154 181.361 207.642 180.007 210.048C178.039 213.548 177.01 217.498 177.01 221.512V333.868V339.995H222.076V333.868V221.512C222.076 217.498 221.042 213.548 219.079 210.048Z" fill="white"/>
<path d="M197.177 221.512C197.177 217.498 198.212 213.548 200.175 210.048C201.524 207.642 204.066 206.154 206.829 206.154H201.853H197.232H186.661C183.904 206.154 181.361 207.642 180.007 210.048C178.039 213.548 177.01 217.498 177.01 221.512V333.868V339.995H197.177V333.868V221.512Z" fill="#F1F1F1"/>
<path d="M216.092 352.557H183.09C182.621 352.557 182.246 352.178 182.246 351.713V349.262H216.941V351.713C216.936 352.178 216.562 352.557 216.092 352.557Z" fill="#D73628"/>
<path d="M199.59 0C196.308 0 193.336 2.00217 191.992 5.11777L178.484 36.4635C177.589 38.5406 177.125 40.7874 177.125 43.0642C177.125 45.8752 179.318 48.152 182.021 48.152H217.16C219.863 48.152 222.056 45.8752 222.056 43.0642C222.056 40.7874 221.592 38.5406 220.697 36.4635L207.189 5.11777C205.845 2.00217 202.873 0 199.59 0Z" fill="#F1F1F1"/>
<path d="M222.041 328.571H177.025V333.823H222.041V328.571Z" fill="#464650"/>
<path d="M171.265 219.325H126.249V224.578H171.265V219.325Z" fill="#464650"/>
<path d="M176.972 131.135V153.568H222.038V131.065C222.038 129.612 221.583 128.199 220.734 127.026L216.812 121.588L220.694 116.316C221.568 115.127 222.038 113.694 222.038 112.216V56.5101C222.038 53.1299 219.295 50.3838 215.908 50.3838H183.096C179.714 50.3838 176.967 53.1249 176.967 56.5101V112.306C176.967 113.759 177.421 115.172 178.27 116.346L182.182 121.768L178.305 127.041C177.441 128.229 176.972 129.662 176.972 131.135Z" fill="white"/>
<path d="M176.971 182.238V186.038C176.971 190.052 178.005 194.001 179.968 197.501C181.317 199.908 183.86 201.396 186.622 201.396H197.193H201.814H212.385C215.143 201.396 217.686 199.908 219.04 197.501C221.008 194.001 222.037 190.052 222.037 186.038V182.238H176.971Z" fill="white"/>
<path d="M191.972 131.135C191.972 129.662 192.442 128.229 193.316 127.046L197.192 121.773L193.281 116.351C192.432 115.172 191.977 113.759 191.977 112.311V56.5101C191.977 53.1299 194.72 50.3838 198.107 50.3838H183.185C179.802 50.3838 177.055 53.1249 177.055 56.5101V112.306C177.055 113.759 177.509 115.172 178.359 116.346L182.27 121.768L178.394 127.041C177.519 128.229 177.05 129.662 177.05 131.13V153.563H191.962V131.135H191.972Z" fill="#F1F1F1"/>
<path d="M194.97 197.501C193.001 194.001 191.972 190.052 191.972 186.037V182.238H177.06V186.037C177.06 190.052 178.094 194.001 180.057 197.501C181.406 199.908 183.949 201.396 186.712 201.396H197.283H201.624C198.861 201.396 196.318 199.908 194.97 197.501Z" fill="#F1F1F1"/>
<path d="M193.184 87.4985L199.609 93.6448L206.283 87.4785V91.7225L199.609 97.6591L193.184 91.7225V87.4985Z" fill="#D73628"/>
<path d="M193.184 79.7892V75.5652L206.278 82.4405V86.4748L193.184 79.7892Z" fill="#D73628"/>
<path d="M193.185 70.2529L199.61 64.3113L206.284 70.2928V74.4969L199.61 68.3306L193.185 74.4769V70.2529Z" fill="#D73628"/>
<path d="M252.02 326.678H248.638L235.864 337.753C234.675 338.781 234.375 340.504 235.144 341.877L237.622 346.286H248.638H252.02H263.035L265.513 341.877C266.283 340.504 265.983 338.781 264.794 337.753L252.02 326.678Z" fill="#464650"/>
<path d="M262.451 348.722H238.272C237.927 348.722 237.652 348.443 237.652 348.103V346.306H263.07V348.103C263.075 348.448 262.796 348.722 262.451 348.722Z" fill="#D73628"/>
<path d="M264.68 337.747L264.739 337.698L252.02 326.673H250.771L258.989 336.924C259.404 337.443 260.034 337.747 260.703 337.747H264.68Z" fill="#6B6B76"/>
<path d="M254.788 334.562L250.777 326.678H249.772L245.761 334.562C245.017 336.02 246.081 337.747 247.719 337.747H252.84C254.468 337.747 255.528 336.02 254.788 334.562Z" fill="#6B6B76"/>
<path d="M249.767 326.68H248.638L235.864 337.755H239.841C240.505 337.755 241.135 337.45 241.554 336.931L249.767 326.68Z" fill="#6B6B76"/>
<path d="M260.793 328.611H239.871C239.611 328.611 239.396 328.401 239.396 328.136V325.395C239.396 325.136 239.606 324.921 239.871 324.921H260.793C261.053 324.921 261.267 325.131 261.267 325.395V328.136C261.262 328.401 261.053 328.611 260.793 328.611Z" fill="#464650"/>
<path d="M221.962 153.613H177.13V182.707H221.962V153.613Z" fill="#464650"/>
<path d="M186.832 163.125C187.852 163.125 188.68 162.298 188.68 161.277C188.68 160.257 187.852 159.43 186.832 159.43C185.811 159.43 184.983 160.257 184.983 161.277C184.983 162.298 185.811 163.125 186.832 163.125Z" fill="#05D261"/>
<path d="M186.832 169.935C187.852 169.935 188.68 169.108 188.68 168.087C188.68 167.067 187.852 166.24 186.832 166.24C185.811 166.24 184.983 167.067 184.983 168.087C184.983 169.108 185.811 169.935 186.832 169.935Z" fill="#05D261"/>
<path d="M186.832 176.745C187.852 176.745 188.68 175.918 188.68 174.898C188.68 173.878 187.852 173.051 186.832 173.051C185.811 173.051 184.983 173.878 184.983 174.898C184.983 175.918 185.811 176.745 186.832 176.745Z" fill="#05D261"/>
<path d="M171.289 199.708C171.289 198.509 170.825 197.321 169.925 196.228L160.304 184.484C158.49 182.267 155.098 182.267 153.285 184.484L143.628 196.268C142.729 197.361 142.269 198.549 142.269 199.748C142.269 201.071 144.018 202.169 146.321 202.394H166.379C169.091 202.394 171.289 201.191 171.289 199.708Z" fill="white"/>
<path d="M221.861 40.5429C221.646 39.1398 221.256 37.7668 220.697 36.4636L208.253 7.5894C207.538 5.92675 205.915 4.80833 204.101 4.79834C204.091 4.79834 204.076 4.79834 204.066 4.79834C201.439 4.79834 199.056 6.40108 197.982 8.89755L187.161 34.0021C186.446 35.6647 186.072 37.4672 186.072 39.2896C186.072 41.5414 187.825 43.3639 189.988 43.3639H218.129C219.878 43.3589 221.351 42.1805 221.861 40.5429Z" fill="white"/>
<path d="M233.075 257.886L267.605 257.886L267.605 199.978L233.075 199.978L233.075 257.886Z" fill="#F1F1F1"/>
<path d="M269.655 264.701L272.113 257.541C272.588 256.163 272.827 254.72 272.827 253.262V212.49C272.827 209.11 270.085 206.364 266.698 206.364H233.891C230.509 206.364 227.761 209.105 227.761 212.49V253.088C227.761 254.66 228.036 256.218 228.571 257.696L230.844 263.977C231.518 265.84 231.863 267.807 231.863 269.789V308.954C231.863 310.841 231.548 312.718 230.934 314.506L228.76 320.832C228.101 322.759 227.761 324.781 227.761 326.818V326.973C227.761 330.987 228.795 334.937 230.759 338.437C232.107 340.844 234.65 342.331 237.413 342.331H247.984H252.605H263.176C265.933 342.331 268.476 340.844 269.83 338.437C271.798 334.937 272.827 330.987 272.827 326.973V323.743L269.745 315.23C269.071 313.367 268.726 311.4 268.726 309.418V270.253C268.726 268.361 269.041 266.484 269.655 264.701Z" fill="white"/>
<path d="M253.339 338.442C251.371 334.942 250.342 330.993 250.342 326.978V326.824C250.342 324.786 250.681 322.764 251.341 320.837L253.514 314.511C254.129 312.723 254.443 310.846 254.443 308.959V269.794C254.443 267.812 254.099 265.845 253.424 263.982L251.151 257.701C250.617 256.223 250.342 254.665 250.342 253.093V212.495C250.342 209.115 253.084 206.369 256.472 206.369H233.891C230.509 206.369 227.761 209.11 227.761 212.495V253.093C227.761 254.665 228.036 256.223 228.571 257.701L230.844 263.982C231.518 265.845 231.863 267.812 231.863 269.794V308.959C231.863 310.846 231.548 312.723 230.934 314.511L228.76 320.837C228.101 322.764 227.761 324.786 227.761 326.824V326.978C227.761 330.993 228.795 334.942 230.759 338.442C232.107 340.849 234.65 342.337 237.413 342.337H247.984H252.605H259.993C257.236 342.332 254.693 340.844 253.339 338.442Z" fill="#F1F1F1"/>
<path d="M250.292 176.99C253.584 176.99 256.567 178.048 257.911 179.691L271.459 196.228C272.358 197.321 272.823 198.51 272.823 199.708C272.823 201.191 270.625 202.394 267.912 202.394H232.667C229.955 202.394 227.757 201.191 227.757 199.708C227.757 198.51 228.221 197.321 229.115 196.228L242.664 179.691C244.018 178.044 247.005 176.99 250.292 176.99Z" fill="#F1F1F1"/>
<path d="M272.827 199.748C272.827 198.549 272.363 197.361 271.463 196.268L261.842 184.524C260.028 182.307 256.636 182.307 254.823 184.524L245.166 196.308C244.267 197.401 243.807 198.589 243.807 199.788C243.807 201.111 245.556 202.209 247.859 202.434H267.916C270.629 202.434 272.827 201.231 272.827 199.748Z" fill="white"/>
<path d="M272.863 199.748C272.863 198.549 272.398 197.361 271.499 196.268L261.877 184.524C260.064 182.307 256.672 182.307 254.858 184.524L245.202 196.308C244.302 197.401 243.843 198.589 243.843 199.788C243.843 201.111 245.591 202.209 247.894 202.434H267.952C270.665 202.434 272.863 201.231 272.863 199.748Z" fill="white"/>
<path d="M151.082 238.752L151.084 255.858C151.084 256.263 150.772 256.589 150.385 256.589H146.719C146.333 256.589 146.02 256.262 146.02 255.857L146.02 238.752C146.02 238.347 146.331 238.02 146.717 238.02H150.383C150.77 238.02 151.082 238.347 151.082 238.752Z" fill="#CBCBCB"/>
<path d="M253.211 221.84L253.213 249.981C253.213 250.368 252.91 250.681 252.536 250.681H248.828C248.454 250.681 248.151 250.368 248.151 249.98L248.148 221.839C248.148 221.452 248.451 221.139 248.826 221.139H252.533C252.903 221.134 253.211 221.452 253.211 221.84Z" fill="#CBCBCB"/>
<path d="M155.016 230.629L157.643 232.487L154.665 233.702L152.807 236.33L151.593 233.344L148.966 231.485L151.951 230.277L153.809 227.643L155.016 230.629Z" fill="white"/>
<path d="M242.793 92.4977L243.53 95.6303L240.498 94.5618L237.36 95.2984L238.435 92.2588L237.699 89.1262L240.73 90.1947L243.868 89.4581L242.793 92.4977Z" fill="white"/>
<path d="M93.0259 133.727C95.4566 135.131 98.5644 134.298 99.9675 131.868C101.371 129.438 100.537 126.33 98.1067 124.927C95.676 123.524 92.5682 124.356 91.1651 126.786C89.7621 129.216 90.5952 132.324 93.0259 133.727Z" fill="#29292E"/>
<path d="M111.591 146.607C112.622 147.201 113.939 146.849 114.534 145.819C115.128 144.789 114.775 143.471 113.745 142.876C112.715 142.282 111.397 142.634 110.803 143.664C110.208 144.695 110.561 146.012 111.591 146.607Z" fill="#29292E"/>
<path d="M256.724 60.9595L261.958 64.6628L256.021 67.0719L252.326 72.3084L249.911 66.3684L244.677 62.6717L250.615 60.256L254.316 55.0195L256.724 60.9595Z" fill="white"/>
<path d="M48.8467 352.674L49.9346 358.992L44.0306 356.497L37.7153 357.586L40.203 351.679L39.1217 345.361L45.0257 347.856L51.3409 346.768L48.8467 352.674Z" fill="white"/>
<path d="M312.474 319.867L315.101 321.725L312.123 322.933L310.265 325.561L309.051 322.581L306.424 320.723L309.403 319.509L311.26 316.88L312.474 319.867Z" fill="white"/>
<path d="M55.0734 282.131L57.7003 283.989L54.7218 285.203L52.8644 287.832L51.6504 284.852L49.0234 282.993L52.0086 281.779L53.866 279.151L55.0734 282.131Z" fill="white"/>
<path d="M159.355 35.7463L161.982 37.6046L159.003 38.8125L157.146 41.4407L155.932 38.4608L153.305 36.6025L156.283 35.3879L158.141 32.7598L159.355 35.7463Z" fill="white"/>
<path d="M367.533 359.297L370.167 361.155L367.182 362.363L365.324 364.998L364.117 362.011L361.483 360.153L364.469 358.938L366.326 356.31L367.533 359.297Z" fill="white"/>
<path d="M308.606 368.316L309.343 371.448L306.311 370.38L303.173 371.116L304.248 368.083L303.512 364.944L306.543 366.019L309.674 365.283L308.606 368.316Z" fill="white"/>
<path d="M90.4306 363.975L91.1669 367.114L88.1287 366.039L84.9976 366.776L86.0656 363.743L85.3292 360.61L88.3675 361.679L91.4986 360.942L90.4306 363.975Z" fill="white"/>
<path d="M91.7243 229.248L96.9583 232.945L91.0211 235.361L87.3261 240.597L84.9115 234.657L79.6775 230.954L85.6146 228.545L89.3162 223.308L91.7243 229.248Z" fill="white"/>
<path d="M327.061 343.952L332.295 347.649L326.358 350.065L322.663 355.301L320.249 349.361L315.015 345.658L320.952 343.249L324.653 338.012L327.061 343.952Z" fill="white"/>
<defs>
<radialGradient id="paint0_radial_8184_25436" cx="0" cy="0" r="1" gradientUnits="userSpaceOnUse" gradientTransform="translate(247.177 329.177) rotate(90) scale(101.526 102.752)">
<stop offset="0.1797" stop-color="#DB3A2C"/>
<stop offset="0.262" stop-color="#DB3A2C" stop-opacity="0.9"/>
<stop offset="0.3839" stop-color="#DB3A2C" stop-opacity="0.75"/>
<stop offset="0.5304" stop-color="#DB3A2C" stop-opacity="0.58"/>
<stop offset="0.696" stop-color="#DB3A2C" stop-opacity="0.38"/>
<stop offset="0.8751" stop-color="#DB3A2C" stop-opacity="0.15"/>
<stop offset="1" stop-color="#DB3A2C" stop-opacity="0"/>
</radialGradient>
<radialGradient id="paint1_radial_8184_25436" cx="0" cy="0" r="1" gradientUnits="userSpaceOnUse" gradientTransform="translate(145.491 329.177) rotate(90) scale(101.526 101.528)">
<stop offset="0.1797" stop-color="#DB3A2C"/>
<stop offset="0.262" stop-color="#DB3A2C" stop-opacity="0.9"/>
<stop offset="0.3839" stop-color="#DB3A2C" stop-opacity="0.75"/>
<stop offset="0.5304" stop-color="#DB3A2C" stop-opacity="0.58"/>
<stop offset="0.696" stop-color="#DB3A2C" stop-opacity="0.38"/>
<stop offset="0.8751" stop-color="#DB3A2C" stop-opacity="0.15"/>
<stop offset="1" stop-color="#DB3A2C" stop-opacity="0"/>
</radialGradient>
<radialGradient id="paint2_radial_8184_25436" cx="0" cy="0" r="1" gradientUnits="userSpaceOnUse" gradientTransform="translate(199.94 330.865) rotate(90) scale(106.438 105.419)">
<stop offset="0.1797" stop-color="#DB3A2C"/>
<stop offset="0.262" stop-color="#DB3A2C" stop-opacity="0.9"/>
<stop offset="0.3839" stop-color="#DB3A2C" stop-opacity="0.75"/>
<stop offset="0.5304" stop-color="#DB3A2C" stop-opacity="0.58"/>
<stop offset="0.696" stop-color="#DB3A2C" stop-opacity="0.38"/>
<stop offset="0.8751" stop-color="#DB3A2C" stop-opacity="0.15"/>
<stop offset="1" stop-color="#DB3A2C" stop-opacity="0"/>
</radialGradient>
</defs>
</svg>
