<svg width="333" height="423" viewBox="0 0 333 423" fill="none" xmlns="http://www.w3.org/2000/svg">
<path d="M178.029 211.86V190.591L184.274 183.828H157.415H157.303H130.438L136.689 190.591V211.86L130.438 218.143L157.303 228.008V228.049L157.356 228.031L157.415 228.049V228.008L184.274 218.143L178.029 211.86Z" fill="#F1F1F1"/>
<path d="M178.029 211.86V190.591L184.274 183.828H157.415H157.303H130.438L136.689 190.591V211.86L130.438 218.143L157.303 228.008V228.049L157.356 228.031L157.415 228.049V228.008L184.274 218.143L178.029 211.86Z" fill="#E5E5E5"/>
<path d="M178.029 200.42V190.585L184.274 183.823H171.897L163.613 198.756C168.43 199.206 173.23 199.828 178.029 200.42Z" fill="#F1F1F1"/>
<path d="M178.029 202.137C172.933 201.504 167.826 200.846 162.712 200.39L162.215 201.29L153.819 210.042L148.297 218.149L152.498 226.243L157.309 228.008V228.049L157.368 228.025L157.427 228.049V228.008L184.286 218.143L178.041 211.854V202.137H178.029Z" fill="white"/>
<path d="M207.85 387.529H166.439C165.995 387.529 165.639 387.174 165.639 386.73V382.04C165.639 381.596 165.995 381.241 166.439 381.241H207.85C208.294 381.241 208.649 381.596 208.649 382.04V386.73C208.649 387.174 208.288 387.529 207.85 387.529Z" fill="#464650"/>
<path d="M207.85 360.351H166.439C165.995 360.351 165.639 359.995 165.639 359.551V354.861C165.639 354.417 165.995 354.062 166.439 354.062H207.85C208.294 354.062 208.649 354.417 208.649 354.861V359.551C208.649 359.989 208.288 360.351 207.85 360.351Z" fill="#464650"/>
<path d="M199.561 388.329L170.279 359.065C169.965 358.751 169.965 358.248 170.279 357.934L173.597 354.618C173.911 354.304 174.415 354.304 174.729 354.618L204.011 383.882C204.325 384.195 204.325 384.699 204.011 385.013L200.693 388.329C200.378 388.642 199.875 388.642 199.561 388.329Z" fill="#464650"/>
<path d="M228.274 329.748L209.846 311.333C208.975 310.463 207.559 310.463 206.688 311.333C205.817 312.203 205.817 313.619 206.688 314.489L225.115 332.904C225.986 333.775 227.403 333.775 228.274 332.904C229.145 332.028 229.145 330.619 228.274 329.748Z" fill="#464650"/>
<path d="M228.274 367.971L209.846 349.556C208.975 348.685 207.559 348.685 206.688 349.556C205.817 350.426 205.817 351.841 206.688 352.712L225.115 371.127C225.986 371.998 227.403 371.998 228.274 371.127C229.145 370.257 229.145 368.842 228.274 367.971Z" fill="#464650"/>
<path d="M209.846 351.93L228.274 333.514C229.145 332.644 229.145 331.229 228.274 330.358C227.403 329.488 225.986 329.488 225.115 330.358L206.688 348.774C205.817 349.644 205.817 351.059 206.688 351.93C207.559 352.8 208.975 352.8 209.846 351.93Z" fill="#464650"/>
<path d="M209.846 391.005L228.274 372.589C229.145 371.719 229.145 370.304 228.274 369.433C227.403 368.563 225.986 368.563 225.115 369.433L206.688 387.849C205.817 388.719 205.817 390.134 206.688 391.005C207.559 391.875 208.975 391.875 209.846 391.005Z" fill="#464650"/>
<path d="M207.85 288.483H166.439C165.995 288.483 165.639 288.127 165.639 287.683V282.994C165.639 282.55 165.995 282.194 166.439 282.194H207.85C208.294 282.194 208.649 282.55 208.649 282.994V287.683C208.649 288.127 208.288 288.483 207.85 288.483Z" fill="#464650"/>
<path d="M106.862 387.529H148.273C148.717 387.529 149.073 387.174 149.073 386.73V382.04C149.073 381.596 148.717 381.241 148.273 381.241H106.862C106.418 381.241 106.063 381.596 106.063 382.04V386.73C106.062 387.174 106.424 387.529 106.862 387.529Z" fill="#464650"/>
<path d="M106.862 360.351H148.273C148.717 360.351 149.073 359.995 149.073 359.551V354.861C149.073 354.417 148.717 354.062 148.273 354.062H106.862C106.418 354.062 106.063 354.417 106.063 354.861V359.551C106.062 359.989 106.424 360.351 106.862 360.351Z" fill="#464650"/>
<path d="M115.151 388.329L144.433 359.065C144.747 358.751 144.747 358.248 144.433 357.934L141.115 354.618C140.801 354.304 140.297 354.304 139.983 354.618L110.702 383.882C110.388 384.195 110.388 384.699 110.702 385.013L114.02 388.329C114.334 388.642 114.843 388.642 115.151 388.329Z" fill="#464650"/>
<path d="M106.862 288.483H148.273C148.717 288.483 149.073 288.127 149.073 287.683V282.994C149.073 282.55 148.717 282.194 148.273 282.194H106.862C106.418 282.194 106.063 282.55 106.063 282.994V287.683C106.062 288.127 106.424 288.483 106.862 288.483Z" fill="#464650"/>
<path d="M75.0031 292.693H118.227C121.225 292.693 123.66 290.265 123.66 287.263V241.87C123.66 238.874 121.231 236.44 118.227 236.44H75.0031C72.005 236.44 69.5698 238.868 69.5698 241.87V287.263C69.5698 290.265 72.005 292.693 75.0031 292.693Z" fill="#F1F1F1"/>
<path d="M172.708 139.993H142.004C135.48 139.993 130.195 134.711 130.195 128.191V55.7969C130.195 49.2775 135.48 43.9956 142.004 43.9956H172.708C179.231 43.9956 184.517 49.2775 184.517 55.7969V128.191C184.517 134.711 179.231 139.993 172.708 139.993Z" fill="#F1F1F1"/>
<path d="M173.265 233.858H141.441V254.613H173.265V233.858Z" fill="#F1F1F1"/>
<path d="M210.728 391.656H206.546C206.155 391.656 205.835 391.336 205.835 390.946V304.026C205.835 303.635 206.155 303.315 206.546 303.315H210.728C211.119 303.315 211.439 303.635 211.439 304.026V390.946C211.445 391.342 211.125 391.656 210.728 391.656Z" fill="#464650"/>
<path d="M229.091 392H224.908C224.517 392 224.198 391.68 224.198 391.289V304.364C224.198 303.973 224.517 303.653 224.908 303.653H229.091C229.482 303.653 229.802 303.973 229.802 304.364V391.283C229.802 391.68 229.482 392 229.091 392Z" fill="#464650"/>
<path d="M238.257 308.557H198.062C194.278 308.557 191.211 306.371 191.211 303.673V239.769C191.211 238.084 193.127 236.724 195.482 236.724H240.821C243.185 236.724 245.093 238.089 245.093 239.769V303.673C245.108 306.371 242.042 308.557 238.257 308.557Z" fill="#F1F1F1"/>
<path d="M76.7336 406.413L81.2841 414.513H98.5202V387.529L76.7336 406.413Z" fill="#464650"/>
<path d="M116.26 406.413L111.71 414.513H94.4675V387.53L116.26 406.413Z" fill="#464650"/>
<path d="M76.7336 406.413L81.2841 414.513H98.5202V387.529L76.7336 406.413Z" fill="#464650"/>
<path d="M116.26 406.413L111.71 414.513H94.4675V387.53L116.26 406.413Z" fill="#464650"/>
<path d="M111.015 417.432H82.0594C81.6506 417.432 81.3247 417.101 81.3247 416.698V414.543H111.756V416.698C111.75 417.107 111.424 417.432 111.015 417.432Z" fill="#6A80FF"/>
<path d="M220.784 308.751H215.517V397.607H220.784V308.751Z" fill="#6B6B76"/>
<path d="M218.154 211.861C214.214 211.861 210.641 213.128 209.029 215.094L192.806 234.889C191.734 236.197 191.177 237.618 191.177 239.057C191.177 240.834 193.807 242.273 197.054 242.273H239.247C242.494 242.273 245.125 240.834 245.125 239.057C245.125 237.618 244.568 236.197 243.495 234.889L227.272 215.094C225.667 213.128 222.094 211.861 218.154 211.861Z" fill="#F1F1F1"/>
<path d="M119.732 316.852L122.677 308.284C123.245 306.637 123.53 304.908 123.53 303.162V254.358C123.53 250.308 120.247 247.027 116.195 247.027H76.9171C72.8643 247.027 69.5818 250.308 69.5818 254.358V302.954C69.5818 304.831 69.9077 306.703 70.5476 308.467L73.2672 315.987C74.073 318.22 74.4878 320.576 74.4878 322.945V369.83C74.4878 372.092 74.1145 374.336 73.3798 376.474L70.7787 384.047C69.9847 386.351 69.5818 388.773 69.5818 391.212V391.402C69.5818 396.21 70.8201 400.935 73.1724 405.127C74.79 408.005 77.8354 409.788 81.1357 409.788H93.7917H99.3199H111.976C115.276 409.788 118.322 408.005 119.939 405.127C122.291 400.935 123.53 396.21 123.53 391.402V387.535L119.844 377.344C119.039 375.112 118.624 372.755 118.624 370.387V323.507C118.624 321.24 118.997 318.989 119.732 316.852Z" fill="white"/>
<path d="M100.208 405.121C97.856 400.929 96.6177 396.204 96.6177 391.396V391.212C96.6177 388.773 97.0206 386.351 97.8146 384.047L100.416 376.474C101.15 374.336 101.524 372.092 101.524 369.83V322.945C101.524 320.57 101.109 318.22 100.303 315.987L97.5835 308.467C96.9436 306.697 96.6177 304.831 96.6177 302.954V254.358C96.6177 250.308 99.9002 247.027 103.953 247.027H76.9227C72.8699 247.027 69.5874 250.308 69.5874 254.358V302.954C69.5874 304.837 69.9133 306.703 70.5532 308.467L73.2728 315.987C74.0786 318.22 74.4934 320.576 74.4934 322.945V369.83C74.4934 372.092 74.1201 374.336 73.3854 376.474L70.7843 384.047C69.9903 386.351 69.5874 388.773 69.5874 391.212V391.396C69.5874 396.204 70.8257 400.929 73.178 405.121C74.7956 407.999 77.8411 409.782 81.1413 409.782H93.7974H99.3255H108.172C104.865 409.782 101.82 407.999 100.208 405.121Z" fill="#F1F1F1"/>
<path d="M96.5585 211.861C100.499 211.861 104.071 213.128 105.683 215.094L121.906 234.889C122.978 236.197 123.535 237.618 123.535 239.057C123.535 240.834 120.905 242.273 117.658 242.273H75.4651C72.2181 242.273 69.5874 240.834 69.5874 239.057C69.5874 237.618 70.1444 236.197 71.2168 234.889L87.4397 215.094C89.0454 213.128 92.6183 211.861 96.5585 211.861Z" fill="#F1F1F1"/>
<path d="M130.385 406.981L136.589 418.036H160.123V381.206L130.385 406.981Z" fill="#464650"/>
<path d="M184.333 406.981L178.123 418.036H154.589V381.206L184.333 406.981Z" fill="#464650"/>
<path d="M180.742 251.433C179.125 248.555 176.079 246.772 172.779 246.772H160.123H154.595H141.939C138.639 246.772 135.593 248.555 133.976 251.433C131.623 255.625 130.385 260.35 130.385 265.158V399.65V406.981H184.333V399.65V265.158C184.333 260.35 183.095 255.625 180.742 251.433Z" fill="#E5E5E5"/>
<path d="M130.385 406.981L136.589 418.036H160.123V381.206L130.385 406.981Z" fill="#464650"/>
<path d="M184.333 406.981L178.123 418.036H154.589V381.206L184.333 406.981Z" fill="#464650"/>
<path d="M180.742 251.433C179.125 248.555 176.079 246.772 172.779 246.772H160.123H154.595H141.939C138.639 246.772 135.593 248.555 133.976 251.433C131.623 255.625 130.385 260.35 130.385 265.158V399.65V406.981H184.333V399.65V265.158C184.333 260.35 183.095 255.625 180.742 251.433Z" fill="white"/>
<path d="M154.524 265.158C154.524 260.35 155.762 255.625 158.114 251.433C159.732 248.555 162.778 246.772 166.078 246.772H160.123H154.595H141.939C138.639 246.772 135.593 248.555 133.976 251.433C131.623 255.625 130.385 260.35 130.385 265.158V399.65V406.981H154.524V399.65V265.158Z" fill="#F1F1F1"/>
<path d="M177.175 422.021H137.649C137.092 422.021 136.648 421.571 136.648 421.021V418.078H178.183V421.021C178.177 421.571 177.732 422.021 177.175 422.021Z" fill="#6A80FF"/>
<path d="M157.416 0C153.487 0 149.926 2.39815 148.321 6.12861L132.151 43.6523C131.079 46.1392 130.528 48.8275 130.528 51.5513C130.528 54.9147 133.152 57.6444 136.388 57.6444H178.456C181.691 57.6444 184.316 54.9147 184.316 51.5513C184.316 48.8275 183.765 46.1333 182.692 43.6523L166.523 6.12861C164.899 2.39815 161.338 0 157.416 0Z" fill="#F1F1F1"/>
<path d="M184.286 393.308H130.397V399.597H184.286V393.308Z" fill="#464650"/>
<path d="M123.5 262.541H69.6113V268.83H123.5V262.541Z" fill="#464650"/>
<path d="M130.341 156.969V183.823H184.289V156.886C184.289 155.151 183.744 153.458 182.725 152.049L178.026 145.541L182.677 139.229C183.726 137.808 184.289 136.091 184.289 134.326V67.6456C184.289 63.5954 181.006 60.3149 176.954 60.3149H137.676C133.623 60.3149 130.341 63.5954 130.341 67.6456V134.433C130.341 136.168 130.886 137.861 131.905 139.27L136.592 145.76L131.952 152.072C130.904 153.493 130.341 155.211 130.341 156.969Z" fill="white"/>
<path d="M130.341 218.143V222.691C130.341 227.499 131.579 232.224 133.931 236.416C135.549 239.294 138.594 241.076 141.895 241.076H154.551H160.079H172.735C176.035 241.076 179.081 239.294 180.698 236.416C183.05 232.224 184.289 227.499 184.289 222.691V218.143H130.341Z" fill="white"/>
<path d="M98.265 278.555L98.2672 298.772C98.2672 299.25 97.9029 299.635 97.4518 299.635H93.1754C92.7243 299.635 92.36 299.249 92.36 298.77L92.3589 278.555C92.3589 278.077 92.722 277.69 93.1732 277.69H97.4495C97.9007 277.69 98.265 278.077 98.265 278.555Z" fill="#CBCBCB"/>
<path d="M221.495 258.294L221.497 292.867C221.497 293.342 221.094 293.727 220.595 293.727H215.651C215.152 293.727 214.749 293.342 214.749 292.866L214.745 258.292C214.745 257.817 215.149 257.433 215.649 257.433H220.592C221.084 257.427 221.495 257.817 221.495 258.294Z" fill="#CBCBCB"/>
<path d="M148.291 156.969C148.291 155.205 148.854 153.493 149.897 152.072L154.536 145.76L149.849 139.27C148.83 137.861 148.285 136.168 148.285 134.433V67.6456C148.285 63.5954 151.568 60.3149 155.62 60.3149H137.768C133.715 60.3149 130.433 63.5954 130.433 67.6456V134.433C130.433 136.168 130.978 137.861 131.997 139.27L136.684 145.76L132.044 152.072C131.002 153.493 130.439 155.205 130.439 156.969V183.823H148.291V156.969Z" fill="#F1F1F1"/>
<path d="M151.881 236.416C149.529 232.224 148.291 227.499 148.291 222.69V218.143H130.438V222.69C130.438 227.499 131.677 232.224 134.029 236.416C135.647 239.294 138.692 241.076 141.992 241.076H154.648H159.845C156.544 241.076 153.499 239.294 151.881 236.416Z" fill="#F1F1F1"/>
<path d="M220.179 391.041H216.127L200.834 404.293C199.412 405.525 199.05 407.585 199.975 409.231L202.937 414.513H216.127H220.179H233.369L236.331 409.231C237.255 407.591 236.894 405.531 235.472 404.293L220.179 391.041Z" fill="#464650"/>
<path d="M232.675 417.433H203.719C203.31 417.433 202.985 417.101 202.985 416.698V414.543H233.416V416.698C233.41 417.107 233.078 417.433 232.675 417.433Z" fill="#6A80FF"/>
<path d="M235.33 404.299L235.401 404.239L220.179 391.047H218.686L228.528 403.316C229.025 403.937 229.778 404.299 230.578 404.299H235.33Z" fill="#6B6B76"/>
<path d="M223.492 400.48L218.686 391.041H217.483L212.678 400.48C211.789 402.226 213.057 404.293 215.019 404.293H221.145C223.106 404.299 224.38 402.226 223.492 400.48Z" fill="#6B6B76"/>
<path d="M217.483 391.041H216.133L200.84 404.293H205.598C206.398 404.293 207.15 403.932 207.648 403.31L217.483 391.041Z" fill="#6B6B76"/>
<path d="M230.684 393.356H205.627C205.318 393.356 205.064 393.108 205.064 392.794V389.501C205.064 389.194 205.313 388.939 205.627 388.939H230.684C230.992 388.939 231.247 389.188 231.247 389.501V392.794C231.241 393.108 230.992 393.356 230.684 393.356Z" fill="#464650"/>
<path d="M178.011 190.674H136.701V211.908H178.011V190.674Z" fill="#E5E5E5"/>
<path d="M123.536 239.057C123.536 237.618 122.979 236.197 121.906 234.888L110.388 220.831C108.213 218.178 104.155 218.178 101.986 220.831L90.4263 234.936C89.3538 236.244 88.7969 237.665 88.7969 239.104C88.7969 240.691 90.8944 242.006 93.6495 242.266H117.658C120.905 242.272 123.536 240.833 123.536 239.057Z" fill="white"/>
<path d="M245.131 239.104C245.131 237.666 244.574 236.244 243.502 234.936L231.983 220.878C229.809 218.226 225.75 218.226 223.581 220.878L212.021 234.983C210.949 236.292 210.392 237.713 210.392 239.152C210.392 240.739 212.49 242.053 215.245 242.314H239.253C242.494 242.32 245.131 240.881 245.131 239.104Z" fill="white"/>
<path d="M184.072 48.5314C183.817 46.8497 183.349 45.2095 182.674 43.6522L167.778 9.0833C166.919 7.09372 164.976 5.7555 162.807 5.74365C162.795 5.74365 162.777 5.74365 162.766 5.74365C159.619 5.74365 156.769 7.66217 155.484 10.6525L142.531 40.7034C141.672 42.6929 141.228 44.8483 141.228 47.0333C141.228 49.7275 143.325 51.9125 145.92 51.9125H179.611C181.696 51.9066 183.462 50.4914 184.072 48.5314Z" fill="white"/>
<path d="M149.754 104.808L157.374 112.097L165.29 104.784V109.817L157.374 116.858L149.754 109.817V104.808Z" fill="#6A80FF"/>
<path d="M149.754 95.6596V90.6501L165.284 98.8039V103.588L149.754 95.6596Z" fill="#6A80FF"/>
<path d="M149.754 84.3555L157.374 77.3091L165.29 84.4029V89.3887L157.374 82.0758L149.754 89.365V84.3555Z" fill="#6A80FF"/>
<path d="M89.167 189.815H5.06742C2.63004 189.815 0.661133 187.84 0.661133 185.411V128.803C0.661133 126.367 2.63683 124.399 5.06742 124.399H89.167C91.6044 124.399 93.5733 126.373 93.5733 128.803V185.411C93.5733 187.84 91.5976 189.815 89.167 189.815Z" fill="#27272E"/>
<path d="M327.425 206.983H243.319C240.882 206.983 238.913 205.008 238.913 202.579V101.795C238.913 99.3585 240.888 97.3906 243.319 97.3906H327.425C329.863 97.3906 331.832 99.3653 331.832 101.795V202.572C331.832 205.008 329.856 206.983 327.425 206.983Z" fill="#27272E"/>
<path d="M329.713 366.431H261.447C259.967 366.431 258.765 365.229 258.765 363.75V317.274C258.765 315.794 259.967 314.593 261.447 314.593H329.713C331.194 314.593 332.395 315.794 332.395 317.274V363.75C332.402 365.229 331.2 366.431 329.713 366.431Z" fill="#27272E"/>
<path d="M273.566 323.062H266.023V324.609H273.566V323.062Z" fill="#05D261"/>
<path d="M272.099 327.697H269.913V329.244H272.099V327.697Z" fill="#05D261"/>
<path d="M280.375 327.697H273.321V329.244H280.375V327.697Z" fill="#121214"/>
<path d="M292.053 327.697H281.835V329.244H292.053V327.697Z" fill="#121214"/>
<path d="M268.453 332.325H266.267V333.872H268.453V332.325Z" fill="#05D261"/>
<path d="M276.729 332.325H269.675V333.872H276.729V332.325Z" fill="#121214"/>
<path d="M297.403 332.325H290.349V333.872H297.403V332.325Z" fill="#05D261"/>
<path d="M288.407 332.325H278.189V333.872H288.407V332.325Z" fill="#121214"/>
<path d="M271.379 341.594H269.675V343.141H271.379V341.594Z" fill="#05D261"/>
<path d="M279.649 341.594H272.595V343.141H279.649V341.594Z" fill="#121214"/>
<path d="M294.001 341.594H292.542V343.141H294.001V341.594Z" fill="#05D261"/>
<path d="M291.326 341.594H281.108V343.141H291.326V341.594Z" fill="#121214"/>
<path d="M305.435 341.594H295.217V343.141H305.435V341.594Z" fill="#121214"/>
<path d="M275.507 356.415H268.453V357.962H275.507V356.415Z" fill="#05D261"/>
<path d="M289.867 356.415H288.407V357.962H289.867V356.415Z" fill="#05D261"/>
<path d="M287.192 356.415H276.974V357.962H287.192V356.415Z" fill="#121214"/>
<path d="M301.3 356.415H291.082V357.962H301.3V356.415Z" fill="#121214"/>
<path d="M325.137 356.415H302.515V357.962H325.137V356.415Z" fill="#121214"/>
<path d="M282.806 346.222H275.752V347.769H282.806V346.222Z" fill="#05D261"/>
<path d="M297.165 346.222H295.706V347.769H297.165V346.222Z" fill="#05D261"/>
<path d="M294.49 346.222H284.272V347.769H294.49V346.222Z" fill="#121214"/>
<path d="M308.599 346.222H298.381V347.769H308.599V346.222Z" fill="#121214"/>
<path d="M305.924 327.697H295.461V329.244H305.924V327.697Z" fill="#121214"/>
<path d="M312.489 327.697H307.383V329.244H312.489V327.697Z" fill="#05D261"/>
<path d="M315.164 327.697H313.948V329.244H315.164V327.697Z" fill="#05D261"/>
<path d="M294.49 327.697H293.031V329.244H294.49V327.697Z" fill="#05D261"/>
<path d="M273.566 336.654H266.511V338.201H273.566V336.654Z" fill="#05D261"/>
<path d="M285.243 336.654H275.025V338.201H285.243V336.654Z" fill="#121214"/>
<path d="M299.114 336.654H288.651V338.201H299.114V336.654Z" fill="#121214"/>
<path d="M322.707 336.654H300.567V338.201H322.707V336.654Z" fill="#121214"/>
<path d="M287.674 336.654H286.214V338.201H287.674V336.654Z" fill="#05D261"/>
<path d="M274.292 351.474H267.238V353.022H274.292V351.474Z" fill="#05D261"/>
<path d="M285.97 351.474H275.752V353.022H285.97V351.474Z" fill="#121214"/>
<path d="M299.84 351.474H289.378V353.022H299.84V351.474Z" fill="#121214"/>
<path d="M323.44 351.474H301.3V353.022H323.44V351.474Z" fill="#121214"/>
<path d="M288.407 351.474H286.947V353.022H288.407V351.474Z" fill="#05D261"/>
<path d="M285.243 323.062H274.781V324.609H285.243V323.062Z" fill="#121214"/>
<path d="M299.114 323.062H288.651V324.609H299.114V323.062Z" fill="#121214"/>
<path d="M320.032 323.062H300.329V324.609H320.032V323.062Z" fill="#121214"/>
<path d="M287.674 323.062H286.458V324.609H287.674V323.062Z" fill="#05D261"/>
<path d="M259.335 108.649H251.792V110.196H259.335V108.649Z" fill="#05D261"/>
<path d="M257.875 113.283H255.689V114.83H257.875V113.283Z" fill="#05D261"/>
<path d="M266.144 113.283H259.09V114.83H266.144V113.283Z" fill="#121214"/>
<path d="M277.822 113.283H267.604V114.83H277.822V113.283Z" fill="#121214"/>
<path d="M254.222 117.918H252.036V119.465H254.222V117.918Z" fill="#05D261"/>
<path d="M262.499 117.918H255.445V119.465H262.499V117.918Z" fill="#121214"/>
<path d="M283.179 117.918H276.125V119.465H283.179V117.918Z" fill="#05D261"/>
<path d="M274.176 117.918H263.958V119.465H274.176V117.918Z" fill="#121214"/>
<path d="M257.149 127.181H255.445V128.728H257.149V127.181Z" fill="#05D261"/>
<path d="M265.418 127.181H258.364V128.728H265.418V127.181Z" fill="#121214"/>
<path d="M279.771 127.181H278.311V128.728H279.771V127.181Z" fill="#05D261"/>
<path d="M277.096 127.181H266.878V128.728H277.096V127.181Z" fill="#121214"/>
<path d="M291.204 127.181H280.986V128.728H291.204V127.181Z" fill="#121214"/>
<path d="M258.364 146.941H256.66V148.488H258.364V146.941Z" fill="#05D261"/>
<path d="M266.633 146.941H259.579V148.488H266.633V146.941Z" fill="#121214"/>
<path d="M280.986 146.941H279.526V148.488H280.986V146.941Z" fill="#05D261"/>
<path d="M278.311 146.941H268.093V148.488H278.311V146.941Z" fill="#121214"/>
<path d="M292.419 146.941H282.201V148.488H292.419V146.941Z" fill="#121214"/>
<path d="M258.364 156.211H256.66V157.758H258.364V156.211Z" fill="#05D261"/>
<path d="M266.633 156.211H259.579V157.758H266.633V156.211Z" fill="#121214"/>
<path d="M280.986 156.211H279.526V157.758H280.986V156.211Z" fill="#05D261"/>
<path d="M278.311 156.211H268.093V157.758H278.311V156.211Z" fill="#121214"/>
<path d="M292.419 156.211H282.201V157.758H292.419V156.211Z" fill="#121214"/>
<path d="M261.283 142.001H254.229V143.548H261.283V142.001Z" fill="#05D261"/>
<path d="M275.636 142.001H274.176V143.548H275.636V142.001Z" fill="#05D261"/>
<path d="M272.961 142.001H262.743V143.548H272.961V142.001Z" fill="#121214"/>
<path d="M287.069 142.001H276.851V143.548H287.069V142.001Z" fill="#121214"/>
<path d="M310.907 142.001H288.285V143.548H310.907V142.001Z" fill="#121214"/>
<path d="M268.582 131.815H261.528V133.363H268.582V131.815Z" fill="#05D261"/>
<path d="M282.935 131.815H281.475V133.363H282.935V131.815Z" fill="#05D261"/>
<path d="M280.26 131.815H270.042V133.363H280.26V131.815Z" fill="#121214"/>
<path d="M294.368 131.815H284.15V133.363H294.368V131.815Z" fill="#121214"/>
<path d="M259.579 151.576H252.525V153.123H259.579V151.576Z" fill="#121214"/>
<path d="M273.932 151.576H272.472V153.123H273.932V151.576Z" fill="#05D261"/>
<path d="M288.04 151.576H286.581V153.123H288.04V151.576Z" fill="#05D261"/>
<path d="M271.257 151.576H261.039V153.123H271.257V151.576Z" fill="#121214"/>
<path d="M285.365 151.576H275.147V153.123H285.365V151.576Z" fill="#121214"/>
<path d="M299.474 151.576H289.256V153.123H299.474V151.576Z" fill="#121214"/>
<path d="M291.693 113.283H281.23V114.83H291.693V113.283Z" fill="#121214"/>
<path d="M298.258 113.283H293.153V114.83H298.258V113.283Z" fill="#05D261"/>
<path d="M300.933 113.283H299.718V114.83H300.933V113.283Z" fill="#05D261"/>
<path d="M280.26 113.283H278.8V114.83H280.26V113.283Z" fill="#05D261"/>
<path d="M259.335 122.24H252.281V123.788H259.335V122.24Z" fill="#05D261"/>
<path d="M271.013 122.24H260.795V123.788H271.013V122.24Z" fill="#121214"/>
<path d="M284.883 122.24H274.421V123.788H284.883V122.24Z" fill="#121214"/>
<path d="M308.476 122.24H286.336V123.788H308.476V122.24Z" fill="#121214"/>
<path d="M273.443 122.24H271.983V123.788H273.443V122.24Z" fill="#05D261"/>
<path d="M260.061 137.061H253.007V138.608H260.061V137.061Z" fill="#05D261"/>
<path d="M271.746 137.061H261.528V138.608H271.746V137.061Z" fill="#121214"/>
<path d="M285.61 137.061H275.147V138.608H285.61V137.061Z" fill="#121214"/>
<path d="M309.209 137.061H287.069V138.608H309.209V137.061Z" fill="#121214"/>
<path d="M274.176 137.061H272.717V138.608H274.176V137.061Z" fill="#05D261"/>
<path d="M271.013 108.649H260.55V110.196H271.013V108.649Z" fill="#121214"/>
<path d="M284.883 108.649H274.421V110.196H284.883V108.649Z" fill="#121214"/>
<path d="M305.801 108.649H286.098V110.196H305.801V108.649Z" fill="#121214"/>
<path d="M273.443 108.649H272.228V110.196H273.443V108.649Z" fill="#05D261"/>
<path d="M257.149 189.238H255.445V190.785H257.149V189.238Z" fill="#05D261"/>
<path d="M265.418 189.238H258.364V190.785H265.418V189.238Z" fill="#121214"/>
<path d="M279.771 189.238H278.311V190.785H279.771V189.238Z" fill="#05D261"/>
<path d="M277.096 189.238H266.878V190.785H277.096V189.238Z" fill="#121214"/>
<path d="M291.204 189.238H280.986V190.785H291.204V189.238Z" fill="#121214"/>
<path d="M258.364 169.47H256.66V171.018H258.364V169.47Z" fill="#05D261"/>
<path d="M266.633 169.47H259.579V171.018H266.633V169.47Z" fill="#121214"/>
<path d="M280.986 169.47H279.526V171.018H280.986V169.47Z" fill="#05D261"/>
<path d="M278.311 169.47H268.093V171.018H278.311V169.47Z" fill="#121214"/>
<path d="M292.419 169.47H282.201V171.018H292.419V169.47Z" fill="#121214"/>
<path d="M258.364 160.208H256.66V161.755H258.364V160.208Z" fill="#05D261"/>
<path d="M266.633 160.208H259.579V161.755H266.633V160.208Z" fill="#121214"/>
<path d="M280.986 160.208H279.526V161.755H280.986V160.208Z" fill="#05D261"/>
<path d="M278.311 160.208H268.093V161.755H278.311V160.208Z" fill="#121214"/>
<path d="M292.419 160.208H282.201V161.755H292.419V160.208Z" fill="#121214"/>
<path d="M261.283 174.41H254.229V175.958H261.283V174.41Z" fill="#05D261"/>
<path d="M275.636 174.41H274.176V175.958H275.636V174.41Z" fill="#05D261"/>
<path d="M272.961 174.41H262.743V175.958H272.961V174.41Z" fill="#121214"/>
<path d="M287.069 174.41H276.851V175.958H287.069V174.41Z" fill="#121214"/>
<path d="M310.907 174.41H288.285V175.958H310.907V174.41Z" fill="#121214"/>
<path d="M268.582 184.603H261.528V186.15H268.582V184.603Z" fill="#05D261"/>
<path d="M282.935 184.603H281.475V186.15H282.935V184.603Z" fill="#05D261"/>
<path d="M280.26 184.603H270.042V186.15H280.26V184.603Z" fill="#121214"/>
<path d="M294.368 184.603H284.15V186.15H294.368V184.603Z" fill="#121214"/>
<path d="M259.579 164.836H252.525V166.383H259.579V164.836Z" fill="#121214"/>
<path d="M273.932 164.836H272.472V166.383H273.932V164.836Z" fill="#05D261"/>
<path d="M288.04 164.836H286.581V166.383H288.04V164.836Z" fill="#05D261"/>
<path d="M271.257 164.836H261.039V166.383H271.257V164.836Z" fill="#121214"/>
<path d="M285.365 164.836H275.147V166.383H285.365V164.836Z" fill="#121214"/>
<path d="M299.473 164.836H289.255V166.383H299.473V164.836Z" fill="#121214"/>
<path d="M259.335 194.178H252.281V195.725H259.335V194.178Z" fill="#05D261"/>
<path d="M271.012 194.178H260.794V195.725H271.012V194.178Z" fill="#121214"/>
<path d="M284.883 194.178H274.421V195.725H284.883V194.178Z" fill="#121214"/>
<path d="M308.476 194.178H286.336V195.725H308.476V194.178Z" fill="#121214"/>
<path d="M273.443 194.178H271.983V195.725H273.443V194.178Z" fill="#05D261"/>
<path d="M260.061 179.351H253.007V180.898H260.061V179.351Z" fill="#05D261"/>
<path d="M271.746 179.351H261.528V180.898H271.746V179.351Z" fill="#121214"/>
<path d="M285.61 179.351H275.147V180.898H285.61V179.351Z" fill="#121214"/>
<path d="M309.209 179.351H287.069V180.898H309.209V179.351Z" fill="#121214"/>
<path d="M274.176 179.351H272.717V180.898H274.176V179.351Z" fill="#05D261"/>
<path d="M20.0583 133.335H12.5154V134.883H20.0583V133.335Z" fill="#05D261"/>
<path d="M18.5985 137.964H16.4124V139.511H18.5985V137.964Z" fill="#05D261"/>
<path d="M26.8681 137.964H19.814V139.511H26.8681V137.964Z" fill="#121214"/>
<path d="M38.5456 137.964H28.3276V139.511H38.5456V137.964Z" fill="#121214"/>
<path d="M14.9459 142.598H12.7598V144.146H14.9459V142.598Z" fill="#05D261"/>
<path d="M23.2221 142.598H16.168V144.146H23.2221V142.598Z" fill="#121214"/>
<path d="M43.9025 142.598H36.8484V144.146H43.9025V142.598Z" fill="#05D261"/>
<path d="M34.8998 142.598H24.6819V144.146H34.8998V142.598Z" fill="#121214"/>
<path d="M17.8721 151.861H16.168V153.408H17.8721V151.861Z" fill="#05D261"/>
<path d="M26.1415 151.861H19.0874V153.408H26.1415V151.861Z" fill="#121214"/>
<path d="M40.4941 151.861H39.0344V153.408H40.4941V151.861Z" fill="#05D261"/>
<path d="M37.8193 151.861H27.6013V153.408H37.8193V151.861Z" fill="#121214"/>
<path d="M51.9274 151.861H41.7095V153.408H51.9274V151.861Z" fill="#121214"/>
<path d="M19.0874 171.622H17.3833V173.169H19.0874V171.622Z" fill="#05D261"/>
<path d="M27.3569 171.622H20.3027V173.169H27.3569V171.622Z" fill="#121214"/>
<path d="M41.7095 171.622H40.2498V173.169H41.7095V171.622Z" fill="#05D261"/>
<path d="M39.0344 171.622H28.8164V173.169H39.0344V171.622Z" fill="#121214"/>
<path d="M53.1428 171.622H42.9248V173.169H53.1428V171.622Z" fill="#121214"/>
<path d="M19.0874 180.891H17.3833V182.438H19.0874V180.891Z" fill="#05D261"/>
<path d="M27.3569 180.891H20.3027V182.438H27.3569V180.891Z" fill="#121214"/>
<path d="M41.7095 180.891H40.2498V182.438H41.7095V180.891Z" fill="#05D261"/>
<path d="M39.0344 180.891H28.8164V182.438H39.0344V180.891Z" fill="#121214"/>
<path d="M53.1428 180.891H42.9248V182.438H53.1428V180.891Z" fill="#121214"/>
<path d="M22.0068 166.681H14.9526V168.229H22.0068V166.681Z" fill="#05D261"/>
<path d="M36.3596 166.681H34.8999V168.229H36.3596V166.681Z" fill="#05D261"/>
<path d="M33.6843 166.681H23.4663V168.229H33.6843V166.681Z" fill="#121214"/>
<path d="M47.7929 166.681H37.575V168.229H47.7929V166.681Z" fill="#121214"/>
<path d="M71.6302 166.681H49.0081V168.229H71.6302V166.681Z" fill="#121214"/>
<path d="M29.3053 156.496H22.2512V158.043H29.3053V156.496Z" fill="#05D261"/>
<path d="M43.6582 156.496H42.1985V158.043H43.6582V156.496Z" fill="#05D261"/>
<path d="M40.9831 156.496H30.7651V158.043H40.9831V156.496Z" fill="#121214"/>
<path d="M55.0912 156.496H44.8733V158.043H55.0912V156.496Z" fill="#121214"/>
<path d="M20.3027 176.256H13.2485V177.804H20.3027V176.256Z" fill="#121214"/>
<path d="M34.6553 176.256H33.1956V177.804H34.6553V176.256Z" fill="#05D261"/>
<path d="M48.7634 176.256H47.3037V177.804H48.7634V176.256Z" fill="#05D261"/>
<path d="M31.9804 176.256H21.7625V177.804H31.9804V176.256Z" fill="#121214"/>
<path d="M46.0886 176.256H35.8706V177.804H46.0886V176.256Z" fill="#121214"/>
<path d="M60.2038 176.256H49.9858V177.804H60.2038V176.256Z" fill="#121214"/>
<path d="M52.4162 137.964H41.9539V139.511H52.4162V137.964Z" fill="#121214"/>
<path d="M58.9816 137.964H53.876V139.511H58.9816V137.964Z" fill="#05D261"/>
<path d="M61.6567 137.964H60.4414V139.511H61.6567V137.964Z" fill="#05D261"/>
<path d="M40.9831 137.964H39.5234V139.511H40.9831V137.964Z" fill="#05D261"/>
<path d="M20.0583 146.921H13.0042V148.468H20.0583V146.921Z" fill="#05D261"/>
<path d="M31.7358 146.921H21.5178V148.468H31.7358V146.921Z" fill="#121214"/>
<path d="M45.6064 146.921H35.144V148.468H45.6064V146.921Z" fill="#121214"/>
<path d="M69.2064 146.921H47.0664V148.468H69.2064V146.921Z" fill="#121214"/>
<path d="M34.1665 146.921H32.7068V148.468H34.1665V146.921Z" fill="#05D261"/>
<path d="M20.7914 161.741H13.7373V163.288H20.7914V161.741Z" fill="#05D261"/>
<path d="M32.4692 161.741H22.2512V163.288H32.4692V161.741Z" fill="#121214"/>
<path d="M46.333 161.741H35.8706V163.288H46.333V161.741Z" fill="#121214"/>
<path d="M69.933 161.741H47.793V163.288H69.933V161.741Z" fill="#121214"/>
<path d="M34.8997 161.741H33.4399V163.288H34.8997V161.741Z" fill="#05D261"/>
<path d="M31.7358 133.335H21.2734V134.883H31.7358V133.335Z" fill="#121214"/>
<path d="M45.6064 133.335H35.144V134.883H45.6064V133.335Z" fill="#121214"/>
<path d="M66.5245 133.335H46.8218V134.883H66.5245V133.335Z" fill="#121214"/>
<path d="M34.1665 133.335H32.9512V134.883H34.1665V133.335Z" fill="#05D261"/>
</svg>
